# xmcd
#
# Track frame offsets: 
#        150
#        18160
#        30570
#        42458
#        55182
#
# Disc length: 930 seconds
#
# Revision: 4
# Processed by: cddbd v1.5.2PL0 Copyright (c) Steve Scherf et al.
# Submitted via: ExactAudioCopy v0.99pb3
#
DISCID=3503a005
DTITLE=BR5-49 - Temporarily Disconnected
DYEAR=1900
DGENRE=Country
TTITLE0=I'm Goin' Down
TTITLE1=I'll Be Yours and You'll Be Mine
TTITLE2=Onie's Bop
TTITLE3=Charming Betsy
TTITLE4=Cajun Persuasion
EXTD=
EXTT0=
EXTT1=
EXTT2=
EXTT3=
EXTT4=
PLAYORDER=
